<?xml version="1.0" encoding="utf-8"?>
<!-- Generator: Adobe Illustrator 19.2.1, SVG Export Plug-In . SVG Version: 6.00 Build 0)  -->
<svg version="1.1" id="Capa_1" xmlns="http://www.w3.org/2000/svg" xmlns:xlink="http://www.w3.org/1999/xlink" x="0px" y="0px"
	 viewBox="0 0 190 128" style="enable-background:new 0 0 190 128;" xml:space="preserve">
<style type="text/css">
	.st0{fill:#E7F4FA;}
	.st1{fill:#D9E8ED;}
	.st2{fill:#E7F2F9;}
	.st3{fill:#D2E6EF;}
</style>
<g>
	<g>
		<path class="st0" d="M49.7,101.1c34.2,14.2,84.7,8.4,104.7-15.3c20-23.7,26.2-37,10.4-63.5c-12.4-7.1-27.1-7.9-40.2-4.7
			c-24,5.8-40.7,16-45.5,36.8c0,0-18.2-24.8-41.5-13.1c-8.1,4.1-14.1,10.6-17.2,18.2C20.3,60.5,16.1,87.2,49.7,101.1z"/>
		<path class="st1" d="M37.7,105.9c29.1,21.2,64.4,27.7,95.6,17.1c31.3-10.6,64.7-31.7,54.9-67.8c-4.5-16.4-13.1-26.9-23.4-32.9
			c15.8,26.5,9.6,39.8-10.4,63.5c-20,23.7-70.5,29.5-104.7,15.3c-33.6-14-29.4-40.7-29.2-41.6C14.6,73.8,18.8,92.1,37.7,105.9z"/>
	</g>
	<g>
		<path class="st2" d="M14.5,25.3c2.9,1.5,11.3,2.9,20.7-7.5c9.5-10.4-4.4-17.3-4.4-17.3l0,0c-6.4-1.1-12.8,0-12.8,0
			S11.1,3.3,6.3,7.9C3.2,22.5,11.5,23.8,14.5,25.3z"/>
		<path class="st3" d="M44,9.6c-4.5-9.8-13.2-9.2-13.2-9.2s13.8,6.9,4.4,17.3c-9.5,10.4-17.8,9-20.7,7.5c-2.9-1.5-11.3-2.8-8.2-17.4
			v0c0,0-7.8,6-6,18.5c1.8,12.5,20.4,8.5,27.3,5.6C34.5,28.9,50.1,22.8,44,9.6z"/>
	</g>
</g>
</svg>
