<?xml version="1.0" encoding="utf-8"?>
<!-- Generator: Adobe Illustrator 19.2.1, SVG Export Plug-In . SVG Version: 6.00 Build 0)  -->
<svg version="1.1" id="Capa_1" xmlns="http://www.w3.org/2000/svg" xmlns:xlink="http://www.w3.org/1999/xlink" x="0px" y="0px"
	 viewBox="0 0 1870 472" style="enable-background:new 0 0 1870 472;" xml:space="preserve">
<style type="text/css">
	.st0{fill:#EAF9FD;}
	.st1{fill:#D8EFF3;}
</style>
<g>
	<path class="st0" d="M1582.8,350.5c0,0,36-96-77.6-139.4c-103.8-39.7-177.2,28.2-189.1,40.2c7.2-8,32.4-42.1-22.3-76.2
		c-62.5-39-112.9,12-112.9,12s36-84-43.5-149.9C1058-28.8,935.2,13.1,935,13.2c-0.2-0.1-123-41.9-202.4,24
		c-79.5,66-43.5,149.9-43.5,149.9s-50.4-51-112.9-12c-54.7,34.1-29.5,68.1-22.3,76.2c-11.9-12-85.2-79.9-189.1-40.2
		c-113.6,43.5-77.6,139.4-77.6,139.4S-98.3,358,24,403c122.3,45,483.7,60.5,612.6,62c128.6,1.5,297.4,7,298.4,7v0c0,0,0,0,0,0
		c0,0,0,0,0,0v0c1,0,169.8-5.5,298.4-7c129-1.5,490.3-17,612.6-62S1582.8,350.5,1582.8,350.5z"/>
	<g>
		<path class="st1" d="M816.7,176.9c0.1-0.2,0.1-0.3,0.1-0.3S816.8,176.7,816.7,176.9z"/>
		<path class="st1" d="M1053.3,176.9c-0.1-0.2-0.1-0.3-0.1-0.3S1053.2,176.7,1053.3,176.9z"/>
		<path class="st1" d="M1457.7,412c-86.3-45-129.1-58.5-97.2-166.4c0,0,3.3-23.2,79.8-46.8c0,0-82.5-1.2-125.9,54.3
			c0,0-53.3,72-112.9,46.5c-59.6-25.5-26.4-113.5,17-134.7c0,0-22.6,1.3-37.6,22.3c0,0,13.3-38.5,6.9-64.2c0,0-3.2,86.7-62.8,86.7
			c-56.1,0-70.3-29.3-71.7-32.7c2.8,7,49.4,125.9-58.3,133.1c0,0-59.5,1.5-60-22.2v-0.3c0,0,0,0.1,0,0.1c0,0,0-0.1,0-0.1v0.3
			c-0.5,23.7-60,22.2-60,22.2c-107.7-7.3-61.1-126.2-58.3-133.1c-1.4,3.4-15.6,32.7-71.7,32.7c-59.5,0-62.8-86.7-62.8-86.7
			c-6.4,25.7,6.9,64.2,6.9,64.2c-15-21-37.6-22.3-37.6-22.3c43.4,21.2,76.6,109.2,17,134.7c-59.6,25.5-112.9-46.5-112.9-46.5
			c-43.5-55.5-125.9-54.3-125.9-54.3c76.5,23.7,79.8,46.8,79.8,46.8c31.9,108-10.9,121.5-97.2,166.4S24,403,24,403
			c147.6,69.6,909.1,69,911,69c0,0,0,0,0,0c1.9,0,763.4,0.6,911-69C1846,403,1544,457,1457.7,412z"/>
	</g>
</g>
</svg>
