<?xml version="1.0" encoding="utf-8"?>
<!-- Generator: Adobe Illustrator 19.2.1, SVG Export Plug-In . SVG Version: 6.00 Build 0)  -->
<svg version="1.1" id="Capa_1" xmlns="http://www.w3.org/2000/svg" xmlns:xlink="http://www.w3.org/1999/xlink" x="0px" y="0px"
	 viewBox="0 0 700 324" style="enable-background:new 0 0 700 324;" xml:space="preserve">
<style type="text/css">
	.st0{fill:#E4EDEB;}
	.st1{fill:#FFFFFF;}
</style>
<g>
	<g>
		<path class="st0" d="M96.9,307.5c0,0,254.6,37.2,577.4,0c0,0,57.9-4.1,0-15.5c-57.9-11.4-135.5-38.2-157.2-61.9
			c0,0,38.3-95-14.5-158.9s-109.4-9.3-114.2,13.4c0,0,5.6-73.3-45.1-82.6s-184.4,8.3-206.5,207.5c0,0-38.7,57.8-115.2,58.8
			C-55,269.3,96.9,307.5,96.9,307.5z"/>
		<path class="st1" d="M136.8,261c69.7-15.5,42-147.6,42-147.6c65.2,40.3,79.7,38.2,150,12.4c70.3-25.8,44.5-104.9,44.5-104.9
			c-6.7-9.2-16.3-16.4-30.1-19c-50.7-9.3-184.4,8.3-206.5,207.5c0,0-38.7,57.8-115.2,58.8c-19,0.3-23.9,2.8-20.6,6.5
			C32.5,275.4,86.2,272.2,136.8,261z"/>
		<path class="st1" d="M464.3,75.2c3-8.6,13.7-14.8,26.7-16.3c-39.7-35.5-79.2-10.7-95.3,11.2c-5.5,49.1-34.8,123.8-34.8,123.8
			C403.3,183.6,455,102,464.3,75.2z"/>
	</g>
	<path class="st1" d="M479.1,272.4c0,0-0.3,6.1,83.5,23.7c53.5,11.2,101.4,5.6,129.1,0.1c-4-1.3-9.7-2.7-17.4-4.2
		c-57.4-11.3-134.2-37.8-156.7-61.4C498.6,257.5,479.1,272.4,479.1,272.4z"/>
</g>
</svg>
