<?xml version="1.0" encoding="utf-8"?>
<!-- Generator: Adobe Illustrator 19.2.1, SVG Export Plug-In . SVG Version: 6.00 Build 0)  -->
<svg version="1.1" id="Capa_1" xmlns="http://www.w3.org/2000/svg" xmlns:xlink="http://www.w3.org/1999/xlink" x="0px" y="0px"
	 viewBox="0 0 400 400" style="enable-background:new 0 0 400 400;" xml:space="preserve">
<style type="text/css">
	.st0{fill:#47A7D3;stroke:#010002;stroke-miterlimit:10;}
	.st1{fill:#3E4992;stroke:#010002;stroke-miterlimit:10;}
	.st2{fill:#49A7D2;stroke:#010002;stroke-miterlimit:10;}
	.st3{fill:#47A7D2;stroke:#010002;stroke-miterlimit:10;}
	.st4{fill:#C33F33;stroke:#010002;stroke-miterlimit:10;}
	.st5{fill:#C33F34;stroke:#010002;stroke-miterlimit:10;}
	.st6{fill:#E7E238;stroke:#010002;stroke-miterlimit:10;}
	.st7{fill:#349642;stroke:#010002;stroke-miterlimit:10;}
</style>
<rect x="154.8" y="15.9" class="st0" width="93.3" height="104.2"/>
<rect x="142.9" y="39.7" class="st1" width="11.9" height="35.7"/>
<rect x="248.1" y="39.7" class="st1" width="11.9" height="35.7"/>
<rect x="189.6" y="120.1" class="st2" width="27.8" height="16.9"/>
<rect x="154.8" y="254.1" class="st3" width="21.8" height="109.2"/>
<rect x="115.9" y="363.3" class="st4" width="64.3" height="36.7"/>
<rect x="225.3" y="254.1" class="st3" width="21.8" height="109.2"/>
<rect x="215.9" y="363.3" class="st5" width="68.3" height="36.7"/>
<circle class="st6" cx="181.1" cy="50.6" r="15.8"/>
<circle class="st6" cx="225.4" cy="50.6" r="15.8"/>
<rect x="180.7" y="84.3" class="st6" width="41.6" height="26.9"/>
<rect x="142.9" y="137" class="st7" width="117.1" height="117.1"/>
<rect x="181.1" class="st1" width="44.3" height="15.9"/>
<rect x="207" y="187.9" transform="matrix(3.393356e-011 1 -1 3.393356e-011 472.0491 -69.4436)" class="st3" width="127.4" height="26.8"/>
<circle class="st6" cx="270.7" cy="265" r="21.6"/>
<rect x="65" y="187.4" transform="matrix(-6.732766e-011 1 -1 -6.732766e-011 330.0601 71.5528)" class="st3" width="128.4" height="26.8"/>
<circle class="st6" cx="129.3" cy="265" r="21.6"/>
</svg>
